<?xml version="1.0" encoding="UTF-8" standalone="no"?>
<!-- Created with Inkscape (http://www.inkscape.org/) -->

<svg
   xmlns:dc="http://purl.org/dc/elements/1.1/"
   xmlns:cc="http://creativecommons.org/ns#"
   xmlns:rdf="http://www.w3.org/1999/02/22-rdf-syntax-ns#"
   xmlns:svg="http://www.w3.org/2000/svg"
   xmlns="http://www.w3.org/2000/svg"
   xmlns:sodipodi="http://sodipodi.sourceforge.net/DTD/sodipodi-0.dtd"
   xmlns:inkscape="http://www.inkscape.org/namespaces/inkscape"
   id="svg24235"
   version="1.1"
   inkscape:version="0.48.1 "
   width="446.25"
   height="280"
   xml:space="preserve"
   sodipodi:docname="Frame_2.pdf"><metadata
     id="metadata24241"><rdf:RDF><cc:Work
         rdf:about=""><dc:format>image/svg+xml</dc:format><dc:type
           rdf:resource="http://purl.org/dc/dcmitype/StillImage" /><dc:title></dc:title></cc:Work></rdf:RDF></metadata><defs
     id="defs24239" /><sodipodi:namedview
     pagecolor="#ffffff"
     bordercolor="#666666"
     borderopacity="1"
     objecttolerance="10"
     gridtolerance="10"
     guidetolerance="10"
     inkscape:pageopacity="0"
     inkscape:pageshadow="2"
     inkscape:window-width="640"
     inkscape:window-height="480"
     id="namedview24237"
     showgrid="false"
     inkscape:zoom="1.0392857"
     inkscape:cx="223.125"
     inkscape:cy="140"
     inkscape:window-x="0"
     inkscape:window-y="0"
     inkscape:window-maximized="0"
     inkscape:current-layer="g24243" /><g
     id="g24243"
     inkscape:groupmode="layer"
     inkscape:label="Frame_2"
     transform="matrix(1.25,0,0,-1.25,0,280)"><g
       id="g24245"
       transform="scale(0.24,0.24)"><path
         d="m 1287.41,78.1797 c 72.34,0 130.99,58.6363 130.99,130.9803 l 0,477.899 c 0,72.339 -58.65,130.988 -130.99,130.988 l -1066.148,0 c -72.336,0 -130.9729,-58.649 -130.9729,-130.988 l 0,-477.899 c 0,-72.344 58.6369,-130.9803 130.9729,-130.9803 l 1066.148,0"
         style="fill:#ffffff;fill-opacity:1;fill-rule:nonzero;stroke:none"
         id="path24247" /><path
         d="m 1287.41,78.1797 c 72.34,0 130.99,58.6363 130.99,130.9803 l 0,477.899 c 0,72.339 -58.65,130.988 -130.99,130.988 l -1066.148,0 c -72.336,0 -130.9729,-58.649 -130.9729,-130.988 l 0,-477.899 c 0,-72.344 58.6369,-130.9803 130.9729,-130.9803 l 1066.148,0 z"
         style="fill:none;stroke:#000000;stroke-opacity:1;stroke-width:30.3208;stroke-linecap:round;stroke-linejoin:miter;stroke-miterlimit:4;stroke-dasharray:none"
         id="path24249" /><path
         d="m 272.551,122.641 c 7.621,-5.094 10.656,-13.754 8.504,-24.2308 -2.157,-10.4766 12.39,-13.1485 16.277,-2.0586 3.883,11.0864 5.008,13.4214 0.844,19.7384 9.363,-4.488 5.992,-11.508 8.422,-18.4298 7.625,-5.1055 18.523,2.6128 15.394,17.0698 -2.097,9.653 -7.906,22.5 -24.695,20.497 6.5,-7.442 -3.469,-1.219 -15.063,-1.407 4.25,-12.117 7.715,-10.898 -9.683,-11.179"
         style="fill:#ffffff;fill-opacity:1;fill-rule:nonzero;stroke:none"
         id="path24251" /><path
         d="m 272.551,122.641 c 7.621,-5.094 10.656,-13.754 8.504,-24.2308 -2.157,-10.4766 12.39,-13.1485 16.277,-2.0586 3.883,11.0864 5.008,13.4214 0.844,19.7384 9.363,-4.488 5.992,-11.508 8.422,-18.4298 7.625,-5.1055 18.523,2.6128 15.394,17.0698 -2.097,9.653 -7.906,22.5 -24.695,20.497 6.5,-7.442 -3.469,-1.219 -15.063,-1.407 4.25,-12.117 7.715,-10.898 -9.683,-11.179 z"
         style="fill:none;stroke:#000000;stroke-opacity:1;stroke-width:15.2833;stroke-linecap:butt;stroke-linejoin:miter;stroke-miterlimit:4;stroke-dasharray:none"
         id="path24253" /><path
         d="m 272.215,125.684 c 7.625,-5.098 10.668,-13.754 8.515,-24.235 -2.16,-10.4724 12.395,-13.1443 16.278,-2.0623 3.883,11.0903 5.004,13.4263 0.847,19.7423 9.352,-4.492 5.981,-11.504 8.415,-18.43 7.621,-5.1013 18.527,2.614 15.394,17.067 -2.094,9.656 -7.902,22.504 -24.699,20.496 6.508,-7.442 -3.457,-1.215 -15.063,-1.399 4.258,-12.117 7.719,-10.906 -9.687,-11.179"
         style="fill:#ffffff;fill-opacity:1;fill-rule:nonzero;stroke:none"
         id="path24255" /><path
         d="m 272.215,125.684 c 7.625,-5.098 10.668,-13.754 8.515,-24.235 -2.16,-10.4724 12.395,-13.1443 16.278,-2.0623 3.883,11.0903 5.004,13.4263 0.847,19.7423 9.352,-4.492 5.981,-11.504 8.415,-18.43 7.621,-5.1013 18.527,2.614 15.394,17.067 -2.094,9.656 -7.902,22.504 -24.699,20.496 6.508,-7.442 -3.457,-1.215 -15.063,-1.399 4.258,-12.117 7.719,-10.906 -9.687,-11.179 z"
         style="fill:none;stroke:#000000;stroke-opacity:1;stroke-width:4.4;stroke-linecap:butt;stroke-linejoin:miter;stroke-miterlimit:4;stroke-dasharray:none"
         id="path24257" /><path
         d="m 287.137,381.422 c 12.929,-3.102 21.843,-8.301 26.215,-13.082 3.972,3.523 8.097,40.828 11.773,54.586 3.668,13.758 19.566,16.359 24.148,-38.68 8.563,-3.976 7.188,-18.648 3.368,-31.953 5.246,-4.203 8.996,-14.703 9.004,-26.531 26.765,0.328 -1.309,-20.914 -6.79,-29.739 -0.207,-0.976 0.813,-4.441 1.797,-6.378 18.672,0.14 28.161,-18.981 3.426,-34.961 -6.789,-29.993 -21.101,-26.2 -35.875,-52.825 -2.14,-45.562 -5.535,-70.16 -47.086,-98.457 C 270.383,98.8164 256.09,95.1914 253.59,90.75 238.16,63.3164 220.566,76.0117 214.023,73.7227 c -20.468,-7.1914 -21.378,4.8867 -27.714,7.3593 -8.063,3.1485 -29.961,12.8438 -39.137,20.18 C 124.504,96.0352 95.4648,47.6211 91.8359,29.7148 86.9453,5.5625 74.9922,21.6602 70.7422,35.5234 65.0039,54.2578 60.6992,67.7656 60.9648,67.9336 45.5898,58.2734 34.3633,57.2344 49.6484,82.918 55.75,93.1641 56.0273,90.8008 35.8906,92.3945 5.01172,94.8398 13.5742,111.051 33.7539,117.465 c 20.1797,6.422 78.5621,46.785 74.8911,53.207 -22.0044,0.914 -18.3325,31.187 -17.4145,44.945 -39.4375,16.508 -27.8164,48.922 -18.6524,55.336 -43.1054,33.637 -39.7422,64.219 -21.7031,65.133 7.8203,0.398 6.1133,9.48 6.1133,9.48 -16.2031,29.969 -10.3906,58.707 -0.9141,60.848 12.836,-5.504 76.4218,-70.629 97.5158,-97.238 16.121,-20.324 21.098,-51.676 22.933,-72.774 2.75,2.758 1.223,4.895 9.481,7.649 -14.492,17.738 -29.316,77.953 20.488,116.035 3.821,12.23 15.43,34.477 24.606,39.059 -0.766,-8.407 3.054,-13.758 3.054,-17.582 6.118,8.414 19.11,20.64 33.637,22.933 -5.355,-7.641 -6.887,-16.816 -7.644,-19.871 11.464,4.582 29.043,9.938 34.394,8.41 -4.586,-3.828 -8.164,-8.937 -7.402,-11.613"
         style="fill:#000000;fill-opacity:1;fill-rule:nonzero;stroke:none"
         id="path24259" /><path
         d="m 282.371,373.395 c 32.363,-4.606 47.078,-33.305 45.809,-54.207 -2.297,-0.762 -6.121,-5.649 -13,-12.536 -14.547,-14.539 0,-9.168 10.699,1.532 10.703,10.703 22.934,13.757 32.105,10.703 1.18,-3.121 -2.988,-9.91 -12.91,-24.696 0.762,-2.105 3.543,-9.703 4.5,-11.234 19.492,0.77 21.024,-13.758 1.153,-19.297 -17.293,-4.824 -18.157,0.207 -19.875,-7.836 -2.301,-10.703 13.3,-6.535 15.976,-4.625 -6.457,-25.293 -28.281,-24.504 -33.176,-52.633 1.227,-18.043 -1.984,-65.812 -54.574,-94.246 -44.762,-24.195 -71.543,-19.2653 -99.68,0.61 -21.199,14.984 -39.75,58.402 -39.75,65.742 0,7.336 -1.828,7.336 -1.828,7.336 -27.5075,0 -16.511,34.855 -10.086,44.031 -50.4371,11.004 -25.984,45.859 -15.8981,51.363 -15.2812,4.586 -25.6836,16.512 -34.8476,31.188 -17.9258,28.707 14.0586,23.851 21.3945,23.851 -26.5898,33.024 -20.7773,60.239 -13.75,55.957 9.9024,-6.027 90.6092,-88.273 94.1602,-103.656 2.754,-11.926 12.535,-50.758 14.672,-60.851 6.422,10.093 14.875,14.293 23.543,10.402 4.785,-2.148 17.199,-9.035 20.488,-2.906 1.852,-0.727 -11.844,6.183 -17.426,10.242 -34.011,43.836 -19.527,93.211 13.785,117.055 2.29,6.875 4.247,13.89 13.418,25.355 0.766,-8.41 3.059,-16.055 3.059,-16.055 9.938,10.704 18.344,25.993 25.223,29.051 -3.055,-10.703 -6.114,-16.82 -6.114,-22.172 9.172,9.176 25.223,12.227 29.047,12.996 -4.586,-5.351 -12.933,-9.695 3.883,-10.464"
         style="fill:#ffffff;fill-opacity:1;fill-rule:nonzero;stroke:none"
         id="path24261" /><path
         d="m 37.1172,106.457 c 0,0 -3.6719,-5.5 16.5117,-6.418 20.1719,-0.9179 35.7617,22.016 53.1871,27.516 -6.421,-5.5 -31.1832,-27.516 -39.4293,-33.9339 -8.2539,-6.4219 -12.8437,-17.4297 -5.5078,-14.6797 7.3438,2.7539 8.2578,0.9219 13.7539,8.2578 5.5039,7.3399 33.9302,32.1058 39.4332,33.9378 11.442,3.812 -7.332,-6.418 -18.3355,-19.262 C 85.7227,89.0352 75.6328,75.2695 75.6328,68.8516 c 0,-6.418 2.75,-26.5977 7.3399,-27.5196 7.0468,19.3555 33.1993,57.3203 52.2773,73.387 -6.426,8.254 -19.262,29.347 -23.852,35.769 C 98.8711,137.953 78.3828,122.973 61.8789,115.633 49.0586,109.934 42.6211,108.297 37.1172,106.457"
         style="fill:#ffffff;fill-opacity:1;fill-rule:nonzero;stroke:none"
         id="path24263" /><path
         d="m 351.723,326.613 c 0,17.426 -3.668,20.18 -11.012,23.844 10.707,22.02 -0.981,29.125 -1.066,30.117 -2.348,27.133 -7.184,36.848 -9.024,28.594 -1.605,-7.227 -4.887,-41.125 -7.641,-47.547 0.567,-0.793 12.172,-9.707 13.458,-38.371 6.113,2.672 12.992,3.742 15.285,3.363"
         style="fill:#ffffff;fill-opacity:1;fill-rule:nonzero;stroke:none"
         id="path24265" /><path
         d="m 263.492,230.594 c 4.492,-1.215 33.258,-2.059 35.176,29.414 -9.656,-21.629 -41.676,-29.278 -45.105,-24.09 -2.372,3.582 -4.86,-3.813 9.929,-5.324"
         style="fill:#000000;fill-opacity:1;fill-rule:nonzero;stroke:none"
         id="path24267" /><path
         d="m 333.523,290.984 c -0.597,-1.046 -13.433,-13.902 -11.847,-14.523 4.695,-1.828 23.039,-3.902 21.148,1.461 -3.492,9.891 -9.578,14.652 -8.445,18.144 0.496,1.543 2.348,4.723 4.707,4.692 5.477,-0.074 12.227,-21.461 12.781,-21.621 10.703,-3.059 1.645,-9.223 -11.469,-10.699 -10.875,-1.223 -28.238,6.898 -34.394,3.82 -2.293,-1.145 -6.113,-4.582 -3.82,2.293 3.058,9.176 3.82,11.469 7.64,16.82 0.383,-3.062 0.766,-7.644 1.535,-12.234 4.582,2.297 26.75,32.105 45.856,39.75 4.523,-1.504 -19.801,-22.063 -23.692,-27.903"
         style="fill:#000000;fill-opacity:1;fill-rule:nonzero;stroke:none"
         id="path24269" /><path
         d="m 194.102,115.559 c 5.503,-7.336 10.089,-14.985 4.586,-24.1527 -5.504,-9.1719 7.335,-16.5118 14.675,-7.3399 7.336,9.1719 9.176,11.0078 7.336,18.3476 7.34,-7.3398 6.422,-9.7851 1.84,-20.1796 5.5,-7.3399 15.504,-3.0313 20.176,11.0039 4.281,12.8637 -4.586,26.9067 -11.922,30.5777 -5.504,0 -11.316,4.582 -17.738,3.668 3.058,-8.254 -8.559,-9.785 -18.953,-11.925"
         style="fill:#ffffff;fill-opacity:1;fill-rule:nonzero;stroke:none"
         id="path24271" /><path
         d="m 194.102,115.559 c 5.503,-7.336 10.089,-14.985 4.586,-24.1527 -5.504,-9.1719 7.335,-16.5118 14.675,-7.3399 7.336,9.1719 9.176,11.0078 7.336,18.3476 7.34,-7.3398 6.422,-9.7851 1.84,-20.1796 5.5,-7.3399 15.504,-3.0313 20.176,11.0039 4.281,12.8637 -4.586,26.9067 -11.922,30.5777 -5.504,0 -11.316,4.582 -17.738,3.668 3.058,-8.254 -8.559,-9.785 -18.953,-11.925 z"
         style="fill:none;stroke:#000000;stroke-opacity:1;stroke-width:4.4;stroke-linecap:butt;stroke-linejoin:miter;stroke-miterlimit:4;stroke-dasharray:none"
         id="path24273" /><path
         d="m 278.879,344.992 c 3.703,-2.062 9.793,-3.984 13.289,-9.262 -2.555,7.465 -8.086,11.047 -21.27,15.856 7.891,-10.406 -11.925,0.082 -20.496,-6.078 16.133,1.933 31.774,-11.008 27.899,-6.547 -6.438,7.426 -0.863,6.391 0.578,6.031"
         style="fill:#000000;fill-opacity:1;fill-rule:nonzero;stroke:none"
         id="path24275" /><path
         d="m 258.637,276.328 c 6.035,5.715 12.863,5.227 12.863,5.227 7.191,0.425 9.336,0.05 14.699,2.011 6.164,2.247 8.981,6.368 8.981,6.368 -9.266,20.492 -29.614,34.578 -36,15.175 -1.11,-3.781 -2.379,-9.531 0.816,-18.117 1.258,1.578 0.637,7.813 1.113,13.875 1.688,9.172 7.145,11.75 14.184,6.028 -4.668,-4.161 -7.109,-10.895 -1.945,-21.508 -10.93,-1.43 -15.688,-6.383 -14.711,-9.059"
         style="fill:#000000;fill-opacity:1;fill-rule:nonzero;stroke:none"
         id="path24277" /><path
         d="m 258.637,276.328 c 6.035,5.715 12.863,5.227 12.863,5.227 7.191,0.425 9.336,0.05 14.699,2.011 6.164,2.247 8.981,6.368 8.981,6.368 -9.266,20.492 -29.614,34.578 -36,15.175 -1.11,-3.781 -2.379,-9.531 0.816,-18.117 1.258,1.578 0.637,7.813 1.113,13.875 1.688,9.172 7.145,11.75 14.184,6.028 -4.668,-4.161 -7.109,-10.895 -1.945,-21.508 -10.93,-1.43 -15.688,-6.383 -14.711,-9.059 z"
         style="fill:none;stroke:#000000;stroke-opacity:1;stroke-width:1.22083;stroke-linecap:butt;stroke-linejoin:miter;stroke-miterlimit:4;stroke-dasharray:none"
         id="path24279" /><path
         d="m 278.395,302.887 c 2.308,-0.559 3.179,-1.989 3.871,-4.192 -2.969,-0.5 -4.989,-0.422 -4.989,-0.422 -0.5,2.973 1.118,4.614 1.118,4.614"
         style="fill:#ffffff;fill-opacity:1;fill-rule:nonzero;stroke:none"
         id="path24281" /><path
         d="m 247.07,336.273 c 2.86,2.391 7.067,6.793 14.313,9.067 -10.988,-1.797 -15.918,-4.18 -24.766,-13.238 13.317,3.3 -5.754,-6.77 -2.996,-21.43 4.715,18.613 19.984,23.867 17.024,23.207 -9.594,-2.125 -6.129,0.258 -3.575,2.394"
         style="fill:#000000;fill-opacity:1;fill-rule:nonzero;stroke:none"
         id="path24283" /><path
         d="m 1172.46,825.211 c -12.05,-10.285 -18.58,-37.797 -18.21,-48.844 -24.11,-4.734 -15.9,15.817 -37.87,15.91 -23.23,-3.562 -41.68,-17.843 -17.46,-21.578 -37.71,-2.5 -59.03,-16.551 -39.53,-31.808 0,0 -8.71,-7.368 -16.52,-19.774 -9.31,-14.793 3.84,-18.113 12.3,-18.375 11,-0.347 19.65,3.867 33.35,9.446 23.02,9.398 45.41,-18.321 77.39,-13.614 2.87,0.426 10.8,-6.758 10.8,-6.758 2.44,-10.168 10.63,-44.546 35.97,-65.093 56.25,-45.641 103.87,-23.418 122.36,-10.172 -0.18,-5.504 1.14,-20.535 4.47,-31.653 2.38,-12.003 24.5,-9.019 30.37,2.731 14.44,-7.793 27.7,5.562 33.08,31.098 23.56,-9.914 28.39,27.562 27.98,44.093 21.49,12.184 37.87,37.371 20.68,45.246 14.38,19.743 -0.07,27.536 -8.29,28.704 18.16,23.296 -3.53,34.062 -15.39,36.269 4.84,8.102 5.07,15.441 -25.13,18.215 1.9,24.582 47.2,95.18 57.63,105.871 10.43,10.688 22.4,16.875 -2.48,15.395 -30.33,-1.813 -40.3,-27.2 -41.05,-21.668 -0.74,5.527 -7.05,9.394 -10.83,5.839 -3.78,-3.554 -8.51,-7.992 -10.88,4.008 -2.39,12.004 -22.07,28.219 -18.03,10.656 4.04,-17.562 -21.12,-89.285 -30.6,-99.085 -9.49,-9.793 -11.34,-5.098 -21.72,9.851 -29.85,42.977 -58.03,51.027 -98.01,48.387 -5.83,-0.383 -88.13,6.453 -45.55,-17.531 -44.34,-9.559 -36.34,-21.559 -8.83,-25.766"
         style="fill:#000000;fill-opacity:1;fill-rule:nonzero;stroke:none"
         id="path24285" /><path
         d="m 1203.69,848.426 c -30.2,-6.684 -56.87,-14.668 -16.67,-16.84 -12.7,-14.688 -20.29,-33.621 -22.15,-50.547 -4.03,-20.328 6.53,-34.164 4.64,-37.594 -6.96,-12.578 -16.92,-39.187 39.47,-57.683 37.7,-12.367 90.24,5.597 111.09,69.351 -0.84,-39.359 -18.21,-53.972 -46.27,-71.527 -0.15,-4.586 7.58,-36.547 54.52,-32.504 -1.44,17.34 2.09,47.422 -10.5,60.969 1.03,3.64 5.1,16.363 11.35,10.66 4.93,-4.5 13.19,-24.074 9.81,-57.113 -0.27,-2.434 9.83,-29.356 9.12,-71.953 -0.08,-4.582 15.22,-10.043 19.6,10.41 4.29,20.054 3.77,32.91 4.17,45.754 0.43,13.808 5.83,18.32 7.13,-6.645 0.57,-11.035 -1.9,-32.062 -3.25,-45.785 15.55,-1.402 22.68,21.316 22.19,64.461 2.83,2.668 4.95,-17.582 5.56,-27.699 2.16,-1.168 19.48,-11.129 17.62,35.246 -1.43,35.156 -13.94,61.676 -19.85,70.359 -7.02,10.313 1.46,17.391 10,-3.062 8.55,-20.454 18.89,-41.883 18.18,-64.801 10.2,3.351 32.12,29.285 9.28,32.746 -0.78,4.609 27.98,14.734 -10.21,26.008 2.93,5.422 17.91,14.097 9.02,24.496 -8.43,9.867 -25.47,7.219 -31.17,0.972 -6.33,2.954 -6.22,6.618 -1.55,9.227 4.67,2.606 17.76,10.461 9.6,13.469 -8.17,3.008 -31.92,6.496 -52.35,-1.129 -4.56,1.058 -5.24,8.418 5.84,10.832 11.09,2.41 17.51,2.207 22.07,1.144 2.31,15.532 45.3,99.551 64.92,110.872 -6.33,2.953 -23.98,-3.844 -36.5,-22.727 -12.51,-18.879 -28.52,-61.527 -41.64,-70.297 -4.18,12.984 15.58,58.258 16.81,68.313 1.23,10.058 -3.01,21.199 -7.55,23.175 -1.31,-12.804 -21.57,-103.949 -54,-113.957 -4.53,1.977 -6.34,2.95 -8.81,12.203 -2.46,9.25 -28.39,59.059 -79.83,59.379 -15.45,0.098 -75.87,9.934 -39.69,-8.183"
         style="fill:#ffffff;fill-opacity:1;fill-rule:nonzero;stroke:none"
         id="path24287" /><path
         d="m 1384.7,826.52 c 7.76,13.535 19.55,38.863 23.48,47 4.07,12.722 -1.43,12.894 -7.22,3.898 -4.01,-10.891 -13.06,-36.305 -16.26,-50.898"
         style="fill:#ffffff;fill-opacity:1;fill-rule:nonzero;stroke:none"
         id="path24289" /><path
         d="m 1153.32,763.957 c 0.6,-4.539 2.82,-12.191 6.75,-17.355 0.95,-1.25 -16.58,-17.95 3.8,-36.903 2.2,-2.051 1.61,-0.719 -5.87,-1.867 -16.45,-2.523 -36.11,13.086 -48.98,16.316 -6.47,1.625 -21.8,0.891 -34.23,-6.597 -9.94,-5.988 -22.81,-2.848 -15.36,5.32 3.09,3.387 11.85,16.399 22.88,16.981 -0.77,4.605 -8.06,2.66 -12.7,3.308 -7.61,1.063 -3.93,18.649 34.85,20.731 7.94,0.429 6.24,1.855 8.18,5.464 -5.47,1.086 -12.22,6.184 -7.72,9.067 18.44,11.777 12.83,-6.711 33.46,-11.504 4.55,-1.059 11.27,-2.844 14.94,-2.961"
         style="fill:#ffffff;fill-opacity:1;fill-rule:nonzero;stroke:none"
         id="path24291" /><path
         d="m 1274.46,745.578 c -8.05,2.059 -13.78,-1.695 -13.78,-1.695 -6.48,-3.129 -8.17,-4.5 -13.82,-5.395 -6.48,-1.039 -10.94,1.192 -10.94,1.192 -1.87,22.406 9.04,44.621 24.07,30.777 2.8,-2.762 6.71,-7.164 8.1,-16.227 -1.86,0.77 -4.36,6.52 -7.72,11.583 -5.95,7.187 -11.97,6.785 -15.33,-1.637 6.1,-1.363 11.52,-6.055 12.16,-17.848 10.25,4.074 16.82,2.067 17.26,-0.75"
         style="fill:#000000;fill-opacity:1;fill-rule:nonzero;stroke:none"
         id="path24293" /><path
         d="m 1244.27,759.168 c -1.73,-1.613 -1.81,-3.289 -1.33,-5.547 2.83,1.008 4.56,2.059 4.56,2.059 -1,2.836 -3.23,3.488 -3.23,3.488"
         style="fill:#ffffff;fill-opacity:1;fill-rule:nonzero;stroke:none"
         id="path24295" /><path
         d="m 1199.82,742.613 c -2.07,0.692 -11.53,0.91 -11.53,0.91 -6,3.247 -12.79,2.762 -18.46,0.555 -11.79,-4.598 4.67,6.289 4.67,6.289 -0.03,4.399 0.02,9.813 3.84,16.703 7.2,12.91 19.84,11.36 24.28,-5.855 0.77,-4.469 1.49,-12.891 -0.5,-15.953 -1.05,1.488 -1.14,4.668 -1.87,12.808 -1.84,10.743 -10.49,17.114 -14.72,9.633 4.55,-0.664 7.73,-7.57 6.89,-21.687 9.78,-1.817 7.26,-1.868 7.4,-3.403"
         style="fill:#000000;fill-opacity:1;fill-rule:nonzero;stroke:none"
         id="path24297" /><path
         d="m 1182.76,762.98 c -1.93,-1.39 -2.2,-3.046 -2.01,-5.343 2.94,0.652 4.77,1.484 4.77,1.484 -0.64,2.945 -2.76,3.859 -2.76,3.859"
         style="fill:#ffffff;fill-opacity:1;fill-rule:nonzero;stroke:none"
         id="path24299" /><path
         d="m 1290.5,720.703 c -1.93,-4.23 -22.31,-27.203 -42.07,-4.445 25.76,-8.426 40.26,2.48 41.74,13.629 0.57,4.258 2.91,-0.067 0.33,-9.184"
         style="fill:#000000;fill-opacity:1;fill-rule:nonzero;stroke:none"
         id="path24301" /><path
         d="m 1194.38,680.727 c 19.8,-9.11 36.45,-13.723 66.65,-4.286 6.11,-13.757 24.46,-39.132 67.27,-37.609 3.66,-7.027 2.75,-12.836 2.75,-12.836 -19.87,-12.234 -59.32,-25.379 -92.95,-5.504 -28.47,16.824 -40.67,34.246 -43.72,60.235"
         style="fill:#ffffff;fill-opacity:1;fill-rule:nonzero;stroke:none"
         id="path24303" /><path
         d="m 1211.19,737.641 c -23.49,17.359 -34.34,1.761 -39.31,-6.918 -8.5,-14.864 -7.5,-28.297 -6.24,-30.809 3.24,-1.402 16.38,0.223 28.04,5.496 3.37,-14.484 7.52,-20.238 29.21,-7.222 19.71,11.828 15.63,17.96 15.63,17.96 -0.48,3.86 -1.15,17.805 -3.52,8.743 -4.06,-15.5 -6.52,-17.871 -19.17,-22.989 6.37,8.016 3.83,14.856 8.2,22.121 2.61,4.348 -2.51,5.024 -4.25,5.114 -17.14,0.965 -1.93,-6.403 -48.74,-22.453 0.91,7.093 3.11,20.472 12.07,26.933 9.64,6.946 27.07,1.465 30.3,0.063 -0.05,2.269 -0.2,2.8 -2.22,3.961"
         style="fill:#000000;fill-opacity:1;fill-rule:nonzero;stroke:none"
         id="path24305" /><path
         d="m 1202.36,708.699 c -2.45,-1.527 1.61,-12.179 5.23,-6.629 3.62,5.547 3.19,11.618 3.19,11.618 -3.18,-0.872 -6.96,-4.059 -8.42,-4.989"
         style="fill:#ffffff;fill-opacity:1;fill-rule:nonzero;stroke:none"
         id="path24307" /><path
         d="m 1178.17,728.949 c -3.98,-5.812 -8.56,-22.933 -7.95,-24.152 9.78,2.75 45.25,18.648 48.92,24.762 2.68,4.464 -30.27,17.125 -40.97,-0.61"
         style="fill:#ffffff;fill-opacity:1;fill-rule:nonzero;stroke:none"
         id="path24309" /></g></g></svg>